<svg width="25" height="24" viewBox="0 0 25 24" fill="none" xmlns="http://www.w3.org/2000/svg">
<path d="M9.64092 22.2894C10.1715 22.2894 10.6017 21.8593 10.6017 21.3287C10.6017 20.7981 10.1715 20.3679 9.64092 20.3679C9.11032 20.3679 8.68018 20.7981 8.68018 21.3287C8.68018 21.8593 9.11032 22.2894 9.64092 22.2894Z" stroke="#5CA720" stroke-width="2.46591" stroke-linecap="round" stroke-linejoin="round"/>
<path d="M20.2093 22.2894C20.7399 22.2894 21.17 21.8593 21.17 21.3287C21.17 20.7981 20.7399 20.3679 20.2093 20.3679C19.6787 20.3679 19.2485 20.7981 19.2485 21.3287C19.2485 21.8593 19.6787 22.2894 20.2093 22.2894Z" stroke="#5CA720" stroke-width="2.46591" stroke-linecap="round" stroke-linejoin="round"/>
<path d="M1.95483 2.11353H5.79781L8.3726 14.9779C8.46046 15.4202 8.70109 15.8175 9.05237 16.1003C9.40366 16.3831 9.84321 16.5333 10.2941 16.5247H19.6325C20.0834 16.5333 20.523 16.3831 20.8742 16.1003C21.2255 15.8175 21.4662 15.4202 21.554 14.9779L23.0912 6.91724H6.75855" stroke="#5CA720" stroke-width="2.46591" stroke-linecap="round" stroke-linejoin="round"/>
</svg>
