<svg width="35" height="34" viewBox="0 0 35 34" fill="none" xmlns="http://www.w3.org/2000/svg">
<path d="M32.7442 0H1.92423C1.18304 0 0.584229 0.598812 0.584229 1.34V32.16C0.584229 32.9012 1.18304 33.5 1.92423 33.5H32.7442C33.4854 33.5 34.0842 32.9012 34.0842 32.16V1.34C34.0842 0.598812 33.4854 0 32.7442 0ZM31.4042 30.82H23.695V20.5271H28.05L28.7033 15.4728H23.695V12.2443C23.695 10.7786 24.1012 9.782 26.1992 9.782H28.875V5.2595C28.4102 5.19669 26.8231 5.0585 24.9722 5.0585C21.1114 5.0585 18.469 7.41606 18.469 11.7417V15.4686H14.1057V20.5229H18.4732V30.82H3.26423V2.68H31.4042V30.82Z" fill="#5CA720"/>
</svg>
