<svg width="34" height="34" viewBox="0 0 34 34" fill="none" xmlns="http://www.w3.org/2000/svg">
<path d="M16.7345 8.16184C11.9817 8.16184 8.14593 11.9976 8.14593 16.7504C8.14593 21.5032 11.9817 25.339 16.7345 25.339C21.4873 25.339 25.3231 21.5032 25.3231 16.7504C25.3231 11.9976 21.4873 8.16184 16.7345 8.16184ZM16.7345 22.3323C13.6609 22.3323 11.1526 19.824 11.1526 16.7504C11.1526 13.6768 13.6609 11.1685 16.7345 11.1685C19.8081 11.1685 22.3164 13.6768 22.3164 16.7504C22.3164 19.824 19.8081 22.3323 16.7345 22.3323ZM25.6748 5.80846C24.5651 5.80846 23.669 6.70459 23.669 7.81428C23.669 8.92396 24.5651 9.82009 25.6748 9.82009C26.7845 9.82009 27.6806 8.92815 27.6806 7.81428C27.681 7.55078 27.6293 7.2898 27.5286 7.04629C27.4279 6.80279 27.2802 6.58154 27.0939 6.39522C26.9075 6.20889 26.6863 6.06116 26.4428 5.96047C26.1993 5.85979 25.9383 5.80813 25.6748 5.80846ZM33.4761 16.7504C33.4761 14.4389 33.4971 12.1483 33.3672 9.84103C33.2374 7.16103 32.6261 4.78253 30.6663 2.82278C28.7024 0.858839 26.3281 0.251652 23.6481 0.121839C21.3366 -0.00797326 19.046 0.0129643 16.7387 0.0129643C14.4272 0.0129643 12.1366 -0.00797326 9.82931 0.121839C7.14931 0.251652 4.77081 0.863026 2.81106 2.82278C0.847121 4.78671 0.239933 7.16103 0.11012 9.84103C-0.019692 12.1525 0.00124555 14.4431 0.00124555 16.7504C0.00124555 19.0577 -0.019692 21.3525 0.11012 23.6598C0.239933 26.3398 0.851308 28.7183 2.81106 30.678C4.775 32.642 7.14931 33.2491 9.82931 33.379C12.1408 33.5088 14.4314 33.4878 16.7387 33.4878C19.0502 33.4878 21.3407 33.5088 23.6481 33.379C26.3281 33.2491 28.7066 32.6378 30.6663 30.678C32.6302 28.7141 33.2374 26.3398 33.3672 23.6598C33.5012 21.3525 33.4761 19.0619 33.4761 16.7504ZM29.7911 26.6245C29.4854 27.3867 29.1169 27.9561 28.5265 28.5424C27.9361 29.1328 27.3707 29.5013 26.6086 29.807C24.406 30.6822 19.1758 30.4854 16.7345 30.4854C14.2932 30.4854 9.05881 30.6822 6.85618 29.8112C6.09406 29.5055 5.52456 29.137 4.93831 28.5466C4.34787 27.9562 3.97937 27.3908 3.67368 26.6287C2.80268 24.4219 2.9995 19.1917 2.9995 16.7504C2.9995 14.3091 2.80268 9.07471 3.67368 6.87209C3.97937 6.10996 4.34787 5.54046 4.93831 4.95421C5.52875 4.36796 6.09406 3.99528 6.85618 3.68959C9.05881 2.81859 14.2932 3.0154 16.7345 3.0154C19.1758 3.0154 24.4102 2.81859 26.6128 3.68959C27.3749 3.99528 27.9444 4.36378 28.5307 4.95421C29.1211 5.54465 29.4896 6.10996 29.7953 6.87209C30.6663 9.07471 30.4695 14.3091 30.4695 16.7504C30.4695 19.1917 30.6663 24.4219 29.7911 26.6245Z" fill="#5CA720"/>
</svg>
