<svg width="120" height="31" viewBox="0 0 120 31" fill="none" xmlns="http://www.w3.org/2000/svg">
<path d="M33.5833 25.2583C31.9644 25.2583 30.5177 24.9139 29.2433 24.225L29.5275 21.745C30.0269 22.1067 30.6125 22.4167 31.2841 22.675C31.9558 22.9161 32.6877 23.0367 33.48 23.0367C34.2205 23.0367 34.7888 22.9161 35.185 22.675C35.5811 22.4339 35.7791 22.0722 35.7791 21.59C35.7791 21.0561 35.5638 20.6514 35.1333 20.3758C34.72 20.0831 34.1086 19.8075 33.2991 19.5492C32.4725 19.2736 31.7922 19.0067 31.2583 18.7483C30.7244 18.4728 30.2852 18.0939 29.9408 17.6117C29.5963 17.1294 29.4241 16.5094 29.4241 15.7517C29.4241 14.6667 29.8288 13.7711 30.6383 13.065C31.465 12.3417 32.6533 11.98 34.2033 11.98C35.5466 11.98 36.7694 12.2814 37.8716 12.8842L37.5875 15.2608C37.0536 14.8647 36.5197 14.5633 35.9858 14.3567C35.4691 14.1328 34.8922 14.0208 34.255 14.0208C33.5833 14.0208 33.058 14.15 32.6791 14.4083C32.3002 14.6667 32.1108 15.0456 32.1108 15.545C32.1108 15.9067 32.2055 16.1994 32.395 16.4233C32.5844 16.6472 32.86 16.8367 33.2216 16.9917C33.5833 17.1467 34.1516 17.3619 34.9266 17.6375C36.0288 18.0164 36.8986 18.4814 37.5358 19.0325C38.1902 19.5836 38.5175 20.3931 38.5175 21.4608C38.5175 22.5631 38.1127 23.4758 37.3033 24.1992C36.5111 24.9053 35.2711 25.2583 33.5833 25.2583ZM46.8867 25.2583C45.4228 25.2583 44.1655 24.9569 43.115 24.3542C42.0817 23.7514 41.298 22.9419 40.7642 21.9258C40.2475 20.9097 39.9892 19.7731 39.9892 18.5158C39.9892 17.3275 40.2303 16.2425 40.7125 15.2608C41.2119 14.2619 41.9267 13.4697 42.8567 12.8842C43.8039 12.2986 44.9233 12.0058 46.215 12.0058C47.9028 12.0058 49.2461 12.5053 50.245 13.5042C51.2439 14.4858 51.7433 15.8033 51.7433 17.4567C51.7433 17.9044 51.6916 18.3867 51.5883 18.9033H42.7533C42.9255 20.3328 43.3991 21.3661 44.1741 22.0033C44.9664 22.6406 45.9653 22.9592 47.1708 22.9592C48.5314 22.9592 49.78 22.6664 50.9166 22.0808L51.175 24.2767C49.7972 24.9311 48.3678 25.2583 46.8867 25.2583ZM48.9791 17.0692C48.9791 16.2597 48.7466 15.5967 48.2816 15.08C47.8166 14.5633 47.1191 14.305 46.1891 14.305C44.4497 14.305 43.3561 15.2264 42.9083 17.0692H48.9791ZM57.2896 25.2583C56.1702 25.2583 55.3349 24.9569 54.7838 24.3542C54.2499 23.7514 53.9829 22.985 53.9829 22.055V5.625H56.6954V20.7375C56.6954 21.4608 56.7385 21.9861 56.8246 22.3133C56.9107 22.6233 57.0743 22.83 57.3154 22.9333C57.5566 23.0194 57.9613 23.0625 58.5296 23.0625L58.1938 25.2583H57.2896ZM61.1676 14.3825H59.1268L59.4368 12.2383H61.1676V9.345C61.1676 8.19111 61.4862 7.28695 62.1235 6.6325C62.7779 5.96083 63.6993 5.625 64.8876 5.625C65.5937 5.625 66.274 5.71972 66.9285 5.90917L66.6185 8.13083C66.1879 8.01028 65.7918 7.95 65.4301 7.95C64.3796 7.95 63.8543 8.52695 63.8543 9.68083V12.2383H67.0318V14.3825H63.8543V25H61.1676V14.3825ZM74.6823 25.2583C73.2701 25.2583 72.0645 24.9742 71.0656 24.4058C70.0667 23.8203 69.309 23.0281 68.7923 22.0292C68.2929 21.0303 68.0431 19.9108 68.0431 18.6708C68.0431 17.3964 68.2929 16.2597 68.7923 15.2608C69.2917 14.2447 70.0495 13.4439 71.0656 12.8583C72.0817 12.2728 73.3304 11.98 74.8115 11.98C76.1376 11.98 77.2915 12.2383 78.2731 12.755L77.9631 15.0283C76.9987 14.5461 75.9826 14.305 74.9148 14.305C73.6059 14.305 72.5898 14.6925 71.8665 15.4675C71.1604 16.2253 70.8073 17.2758 70.8073 18.6192C70.8073 19.9281 71.1604 20.9786 71.8665 21.7708C72.5898 22.5631 73.5973 22.9592 74.889 22.9592C75.974 22.9592 77.0073 22.6922 77.989 22.1583L78.299 24.38C77.8856 24.6383 77.3517 24.845 76.6973 25C76.0429 25.1722 75.3712 25.2583 74.6823 25.2583ZM83.3908 25.2583C82.2713 25.2583 81.3499 24.9139 80.6266 24.225C79.9205 23.5361 79.5674 22.6319 79.5674 21.5125C79.5674 20.3931 79.9549 19.4975 80.7299 18.8258C81.5221 18.1542 82.478 17.6806 83.5974 17.405C84.7169 17.1122 85.8535 16.9572 87.0074 16.94C86.9902 15.9583 86.7749 15.2867 86.3616 14.925C85.9655 14.5461 85.3196 14.3567 84.4241 14.3567C83.873 14.3567 83.3219 14.4428 82.7708 14.615C82.2369 14.77 81.6427 15.0456 80.9883 15.4417L80.6783 13.2458C81.3155 12.8497 82.013 12.5483 82.7708 12.3417C83.5458 12.1178 84.338 12.0058 85.1474 12.0058C86.7319 12.0058 87.8858 12.4364 88.6091 13.2975C89.3324 14.1586 89.6941 15.6225 89.6941 17.6892V20.66C89.6941 21.3317 89.7199 21.8311 89.7716 22.1583C89.8405 22.4856 89.961 22.7181 90.1333 22.8558C90.3227 22.9936 90.6155 23.0625 91.0116 23.0625H91.3216L91.0116 25.2583H90.4174C89.5219 25.2583 88.8416 25.1206 88.3766 24.845C87.9288 24.5694 87.5671 24.1389 87.2916 23.5533C86.8266 24.0872 86.2583 24.5092 85.5866 24.8192C84.9149 25.1119 84.183 25.2583 83.3908 25.2583ZM84.2174 23.14C84.7169 23.14 85.2163 23.0194 85.7158 22.7783C86.2324 22.5372 86.663 22.2014 87.0074 21.7708V18.7742C83.9074 18.8775 82.3574 19.7472 82.3574 21.3833C82.3574 22.5544 82.9774 23.14 84.2174 23.14ZM93.1372 12.2383H95.5139L95.6947 14.0208C96.8314 12.6603 98.0197 11.98 99.2597 11.98C99.4491 11.98 99.6472 11.9972 99.8539 12.0317L99.6214 14.8475C99.3458 14.7786 99.0358 14.7442 98.6914 14.7442C98.1058 14.7442 97.5547 14.8819 97.038 15.1575C96.5214 15.4331 96.1511 15.7517 95.9272 16.1133V25H93.1372V12.2383ZM107.307 25.2583C105.843 25.2583 104.586 24.9569 103.536 24.3542C102.502 23.7514 101.719 22.9419 101.185 21.9258C100.668 20.9097 100.41 19.7731 100.41 18.5158C100.41 17.3275 100.651 16.2425 101.133 15.2608C101.633 14.2619 102.347 13.4697 103.277 12.8842C104.225 12.2986 105.344 12.0058 106.636 12.0058C108.323 12.0058 109.667 12.5053 110.666 13.5042C111.665 14.4858 112.164 15.8033 112.164 17.4567C112.164 17.9044 112.112 18.3867 112.009 18.9033H103.174C103.346 20.3328 103.82 21.3661 104.595 22.0033C105.387 22.6406 106.386 22.9592 107.592 22.9592C108.952 22.9592 110.201 22.6664 111.337 22.0808L111.596 24.2767C110.218 24.9311 108.788 25.2583 107.307 25.2583ZM109.4 17.0692C109.4 16.2597 109.167 15.5967 108.702 15.08C108.237 14.5633 107.54 14.305 106.61 14.305C104.87 14.305 103.777 15.2264 103.329 17.0692H109.4Z" fill="#161616"/>
<path d="M8.84031 6.68659L6.42293 11.5849L1.01436 12.3729C0.0444412 12.5135 -0.344265 13.7085 0.359108 14.3929L4.27209 18.2035L3.3466 23.5865C3.18001 24.5595 4.20545 25.2883 5.06431 24.8333L9.90278 22.2916L14.7412 24.8333C15.6001 25.2846 16.6255 24.5595 16.459 23.5865L15.5335 18.2035L19.4464 14.3929C20.1498 13.7085 19.7611 12.5135 18.7912 12.3729L13.3826 11.5849L10.9652 6.68659C10.5321 5.81348 9.27714 5.80238 8.84031 6.68659Z" fill="#161616"/>
</svg>
