<svg width="57" height="44" viewBox="0 0 57 44" fill="none" xmlns="http://www.w3.org/2000/svg">
<path d="M10.2506 43.6126V40.7117C10.2506 39.5994 9.57357 38.8743 8.41306 38.8743C7.83292 38.8743 7.20432 39.0677 6.7691 39.6963C6.43079 39.1644 5.94733 38.8743 5.22204 38.8743C4.73837 38.8743 4.25513 39.0192 3.86815 39.5512V38.971H2.85278V43.6126H3.86815V41.05C3.86815 40.2282 4.30337 39.8412 4.98042 39.8412C5.65704 39.8412 5.99579 40.2765 5.99579 41.05V43.6126H7.01115V41.05C7.01115 40.2282 7.49439 39.8412 8.12299 39.8412C8.80005 39.8412 9.13835 40.2765 9.13835 41.05V43.6126H10.2506ZM25.2875 38.971H23.6438V37.5689H22.6284V38.971H21.7097V39.8895H22.6282V42.0171C22.6282 43.0809 23.0634 43.7093 24.2239 43.7093C24.6591 43.7093 25.1424 43.5644 25.4811 43.371L25.1908 42.5006C24.9007 42.6939 24.5624 42.7424 24.3206 42.7424C23.8371 42.7424 23.6438 42.4523 23.6438 41.9687V39.8895H25.2875V38.971ZM33.8941 38.8741C33.3139 38.8741 32.9272 39.1644 32.6854 39.5512V38.971H31.67V43.6126H32.6854V41.0017C32.6854 40.2282 33.0237 39.793 33.6523 39.793C33.8456 39.793 34.0875 39.8415 34.2809 39.8897L34.5709 38.9228C34.3776 38.8743 34.0875 38.8743 33.8941 38.8743V38.8741ZM20.8877 39.3578C20.4041 39.0192 19.7272 38.8743 19.0019 38.8743C17.8416 38.8743 17.0681 39.4545 17.0681 40.3731C17.0681 41.1469 17.6483 41.5819 18.6636 41.727L19.1471 41.7755C19.679 41.872 19.9691 42.0171 19.9691 42.2589C19.9691 42.5973 19.5823 42.8391 18.9052 42.8391C18.2284 42.8391 17.6965 42.5973 17.358 42.3556L16.8745 43.1292C17.4064 43.5159 18.1317 43.7093 18.8568 43.7093C20.2107 43.7093 20.9844 43.0809 20.9844 42.2105C20.9844 41.3885 20.3558 40.9533 19.3887 40.8084L18.9052 40.7599C18.47 40.7115 18.1317 40.615 18.1317 40.3249C18.1317 39.9864 18.47 39.793 19.0019 39.793C19.5823 39.793 20.1624 40.0346 20.4525 40.1798L20.8877 39.3578ZM47.8676 38.8743C47.2872 38.8743 46.9005 39.1644 46.6586 39.5512V38.971H45.6433V43.6126H46.6586V41.0017C46.6586 40.2282 46.9972 39.793 47.6255 39.793C47.8191 39.793 48.061 39.8415 48.2544 39.8897L48.5444 38.9228C48.351 38.8743 48.061 38.8743 47.8676 38.8743ZM34.9095 41.2918C34.9095 42.6939 35.8764 43.7093 37.3754 43.7093C38.0522 43.7093 38.5357 43.5644 39.0192 43.1776L38.5357 42.3556C38.1489 42.6457 37.7622 42.7906 37.327 42.7906C36.505 42.7906 35.9248 42.2105 35.9248 41.2918C35.9248 40.4216 36.505 39.8412 37.327 39.793C37.7622 39.793 38.1489 39.9379 38.5357 40.2282L39.0192 39.4062C38.5357 39.0192 38.0522 38.8743 37.3754 38.8743C35.8764 38.8743 34.9095 39.8897 34.9095 41.2918ZM44.2896 41.2918V38.971H43.2742V39.5512C42.9357 39.1162 42.4522 38.8743 41.8236 38.8743C40.5182 38.8743 39.5028 39.8897 39.5028 41.2918C39.5028 42.6939 40.5182 43.7093 41.8236 43.7093C42.5005 43.7093 42.9841 43.4677 43.2742 43.0325V43.6126H44.2896V41.2918ZM40.5664 41.2918C40.5664 40.4698 41.0983 39.793 41.9686 39.793C42.7905 39.793 43.3709 40.4216 43.3709 41.2918C43.3709 42.1138 42.7905 42.7906 41.9686 42.7906C41.0983 42.7422 40.5664 42.1138 40.5664 41.2918ZM28.4305 38.8743C27.0766 38.8743 26.1095 39.8412 26.1095 41.2918C26.1095 42.7424 27.0764 43.7093 28.4787 43.7093C29.1556 43.7093 29.8326 43.5159 30.3645 43.0809L29.8809 42.3556C29.4941 42.6457 29.0107 42.8391 28.5272 42.8391C27.8986 42.8391 27.27 42.549 27.1249 41.7268H30.5579V41.3403C30.6064 39.8412 29.7359 38.8743 28.4303 38.8743H28.4305ZM28.4305 39.7445C29.0589 39.7445 29.4943 40.1315 29.5908 40.8568H27.1733C27.27 40.2282 27.7052 39.7445 28.4305 39.7445ZM53.6213 41.2918V37.1337H52.6059V39.5512C52.2674 39.1162 51.7839 38.8743 51.1553 38.8743C49.8499 38.8743 48.8345 39.8897 48.8345 41.2918C48.8345 42.6939 49.8499 43.7093 51.1553 43.7093C51.8324 43.7093 52.3158 43.4677 52.6059 43.0325V43.6126H53.6213V41.2918ZM49.8983 41.2918C49.8983 40.4698 50.43 39.793 51.3004 39.793C52.1224 39.793 52.7026 40.4216 52.7026 41.2918C52.7026 42.1138 52.1224 42.7906 51.3004 42.7906C50.43 42.7422 49.8983 42.1138 49.8983 41.2918ZM15.9558 41.2918V38.971H14.9405V39.5512C14.6019 39.1162 14.1185 38.8743 13.4899 38.8743C12.1845 38.8743 11.1691 39.8897 11.1691 41.2918C11.1691 42.6939 12.1845 43.7093 13.4899 43.7093C14.1669 43.7093 14.6504 43.4677 14.9405 43.0325V43.6126H15.9558V41.2918ZM12.1844 41.2918C12.1844 40.4698 12.7164 39.793 13.5866 39.793C14.4086 39.793 14.9889 40.4216 14.9889 41.2918C14.9889 42.1138 14.4086 42.7906 13.5866 42.7906C12.7164 42.7422 12.1844 42.1138 12.1844 41.2918Z" fill="black"/>
<path d="M20.5491 3.72287H35.7795V31.0895H20.5491V3.72287Z" fill="#FF5F00"/>
<path d="M21.5163 17.4064C21.5163 11.8461 24.1271 6.91417 28.1401 3.72293C25.191 1.40213 21.468 0 17.4066 0C7.78439 0 0 7.78439 0 17.4064C0 27.0281 7.78439 34.8127 17.4063 34.8127C21.4678 34.8127 25.1907 33.4106 28.1401 31.0896C24.1271 27.9468 21.5163 22.9666 21.5163 17.4064Z" fill="#EB001B"/>
<path d="M56.3289 17.4064C56.3289 27.0281 48.5445 34.8127 38.9225 34.8127C34.8611 34.8127 31.1381 33.4106 28.1887 31.0896C32.2502 27.8985 34.8128 22.9666 34.8128 17.4064C34.8128 11.8461 32.2017 6.91417 28.1887 3.72293C31.1379 1.40213 34.8611 0 38.9225 0C48.5445 0 56.3291 7.83285 56.3291 17.4064H56.3289Z" fill="#F79E1B"/>
</svg>
