<svg width="29" height="34" viewBox="0 0 29 34" fill="none" xmlns="http://www.w3.org/2000/svg">
<path d="M24.1303 2.59946C22.5958 0.850436 19.822 0.100586 16.2734 0.100586H5.97435C5.62325 0.100599 5.28367 0.225859 5.01666 0.453846C4.74966 0.681833 4.57274 0.997592 4.51771 1.34435L0.22939 28.5419C0.144152 29.0782 0.559439 29.5639 1.10302 29.5639H7.46128L9.05811 19.4355L9.00855 19.7526C9.12231 19.0367 9.73462 18.5086 10.4597 18.5086H13.4811C19.4167 18.5086 24.0644 16.0978 25.422 9.12357C25.4623 8.9173 25.4972 8.71654 25.5274 8.52041C25.356 8.42966 25.356 8.42966 25.5274 8.52041C25.9317 5.94268 25.5246 4.18804 24.1303 2.59946Z" fill="#27346A"/>
<path d="M11.491 7.59182C11.6648 7.50905 11.855 7.46616 12.0475 7.46628H20.1217C21.0779 7.46628 21.9697 7.5285 22.7846 7.65966C23.0126 7.69602 23.2395 7.73943 23.4648 7.78983C23.7842 7.86031 24.1 7.94657 24.4108 8.04829C24.8115 8.1821 25.1846 8.33793 25.5275 8.52041C25.9317 5.94169 25.5246 4.18804 24.1303 2.59946C22.595 0.850436 19.822 0.100586 16.2734 0.100586H5.97347C5.24829 0.100586 4.63136 0.628532 4.51771 1.34435L0.229391 28.5409C0.144153 29.0781 0.559439 29.5631 1.10214 29.5631H7.46128L10.7742 8.55433C10.8068 8.34783 10.889 8.15233 11.0139 7.98467C11.1388 7.817 11.3025 7.68219 11.491 7.59182Z" fill="#27346A"/>
<path d="M25.4223 9.12352C24.0646 16.0967 19.4171 18.5086 13.4814 18.5086H10.4591C9.734 18.5086 9.12158 19.0367 9.00892 19.7526L7.02236 32.3461C6.94813 32.8154 7.31111 33.2407 7.78597 33.2407H13.1458C13.4528 33.2407 13.7498 33.131 13.9832 32.9316C14.2166 32.7321 14.3712 32.456 14.4192 32.1527L14.4714 31.8796L15.4816 25.4773L15.5467 25.1234C15.5947 24.8202 15.7493 24.544 15.9827 24.3446C16.2161 24.1451 16.513 24.0355 16.82 24.0354H17.6221C22.8143 24.0354 26.8798 21.926 28.0678 15.8255C28.5637 13.2761 28.3071 11.1475 26.9953 9.65245C26.5974 9.19961 26.1033 8.82563 25.5277 8.52036C25.4965 8.71748 25.4627 8.91725 25.4223 9.12352Z" fill="#2790C3"/>
<path d="M24.1066 7.95394C23.8949 7.89213 23.6813 7.8374 23.4659 7.78985C23.2404 7.74028 23.0136 7.69716 22.7857 7.66056C21.9699 7.52852 21.0787 7.46619 20.1217 7.46619H12.0485C11.8558 7.46575 11.6655 7.50902 11.492 7.59273C11.3033 7.68282 11.1393 7.81755 11.0144 7.98526C10.8895 8.15298 10.8073 8.34861 10.7751 8.55523L9.05908 19.4355L9.00952 19.7527C9.1224 19.0367 9.7347 18.5087 10.4599 18.5087H13.4822C19.4178 18.5087 24.0653 16.0978 25.423 9.12359C25.4634 8.91733 25.4973 8.71745 25.5285 8.52043C25.1847 8.33894 24.8125 8.18212 24.4118 8.0492C24.3107 8.01568 24.2089 7.98392 24.1066 7.95394Z" fill="#1F264F"/>
</svg>
