<svg width="57" height="19" viewBox="0 0 57 19" fill="none" xmlns="http://www.w3.org/2000/svg">
<path d="M29.776 6.2165C29.7439 8.75293 32.0365 10.1683 33.7635 11.0099C35.5378 11.8733 36.1338 12.427 36.1268 13.1992C36.1136 14.3808 34.7115 14.9024 33.3994 14.9227C31.1103 14.9581 29.7793 14.3046 28.7212 13.8104L27.8966 17.669C28.9582 18.1582 30.924 18.5848 32.9624 18.6035C37.7474 18.6035 40.8779 16.2415 40.8948 12.5794C40.9135 7.93161 34.4661 7.67436 34.5101 5.59693C34.5253 4.96701 35.1264 4.2948 36.4435 4.12388C37.0955 4.03755 38.8952 3.97147 40.9356 4.91107L41.7364 1.17778C40.6391 0.778246 39.2288 0.395666 37.473 0.395666C32.9693 0.395666 29.8016 2.78981 29.776 6.2165ZM49.4316 0.717236C48.5579 0.717236 47.8216 1.2269 47.4929 2.00902L40.6578 18.3293H45.4393L46.3908 15.6997H52.2337L52.7856 18.3293H56.9999L53.3224 0.717236H49.4316ZM50.1005 5.47491L51.4804 12.0884H47.7013L50.1005 5.47491ZM23.9788 0.717455L20.2098 18.3291H24.7662L28.5334 0.717014H23.9788V0.717455ZM17.2384 0.717014L12.4959 12.7047L10.5775 2.51208C10.3524 1.37425 9.46345 0.717236 8.47627 0.717236H0.723819L0.615234 1.22866C2.20678 1.57402 4.01505 2.13104 5.11059 2.72704C5.78104 3.09112 5.97222 3.40938 6.19247 4.27454L9.82598 18.3293H14.6409L22.0229 0.717236H17.2384" fill="url(#paint0_linear)"/>
<defs>
<linearGradient id="paint0_linear" x1="26.5375" y1="18.9688" x2="27.0646" y2="0.269037" gradientUnits="userSpaceOnUse">
<stop stop-color="#222357"/>
<stop offset="1" stop-color="#254AA5"/>
</linearGradient>
</defs>
</svg>
